<svg width="16" height="16" viewBox="0 0 16 16" fill="none" xmlns="http://www.w3.org/2000/svg">
<g clip-path="url(#clip0_6_35)">
<path fill-rule="evenodd" clip-rule="evenodd" d="M7.97616 0.5C3.56555 0.5 0 3.9375 0 8.19016C0 11.5895 2.28457 14.467 5.45388 15.4855C5.85012 15.562 5.99527 15.32 5.99527 15.1164C5.99527 14.9381 5.9822 14.327 5.9822 13.6903C3.76343 14.1488 3.30139 12.7736 3.30139 12.7736C2.94482 11.8823 2.41649 11.6533 2.41649 11.6533C1.69029 11.1822 2.46939 11.1822 2.46939 11.1822C3.27494 11.2331 3.69763 11.9716 3.69763 11.9716C4.41061 13.1428 5.55951 12.8119 6.02171 12.6081C6.08767 12.1116 6.2991 11.7678 6.52359 11.5769C4.75396 11.3986 2.89208 10.7366 2.89208 7.78266C2.89208 6.94234 3.20882 6.25484 3.71069 5.72016C3.63151 5.52922 3.35412 4.73969 3.79004 3.68297C3.79004 3.68297 4.46351 3.47922 5.98204 4.47234C6.63218 4.30401 7.30265 4.21838 7.97616 4.21766C8.64963 4.21766 9.33616 4.30687 9.97012 4.47234C11.4888 3.47922 12.1623 3.68297 12.1623 3.68297C12.5982 4.73969 12.3207 5.52922 12.2415 5.72016C12.7566 6.25484 13.0602 6.94234 13.0602 7.78266C13.0602 10.7366 11.1984 11.3858 9.41551 11.5769C9.70612 11.8187 9.9569 12.277 9.9569 13.0028C9.9569 14.0341 9.94384 14.8617 9.94384 15.1163C9.94384 15.32 10.0891 15.562 10.4852 15.4856C13.6545 14.4669 15.9391 11.5895 15.9391 8.19016C15.9522 3.9375 12.3736 0.5 7.97616 0.5Z" fill="#D9D9D9"/>
</g>
<defs>
<clipPath id="clip0_6_35">
<rect width="16" height="15" fill="white" transform="translate(0 0.5)"/>
</clipPath>
</defs>
</svg>
